<svg xmlns="http://www.w3.org/2000/svg" xmlns:xlink="http://www.w3.org/1999/xlink" version="1.1" x="0px" y="0px" viewBox="0 0 100 100" enable-background="new 0 0 100 100" xml:space="preserve"><g><polygon points="38.302,38.678 43.944,44.565 33.979,42.822 33.125,38.621  "/><path d="M75.057,26.295L75.057,26.295l-0.661-11.79l-2.847-9.353L55.934,17.447l-5.963,0.547l-5.905-0.547L28.451,5.152   l-2.848,9.353l-0.661,11.79l0,0L13.87,59.714l36.1,35.134l36.16-35.134L75.057,26.295z M16.762,59.144l9.403-32.013l7.382-8.111   l16.423,2.748l16.482-2.748l7.383,8.111l9.402,32.013L49.97,87.846L16.762,59.144z"/><polygon points="61.697,38.678 56.056,44.565 66.021,42.822 66.874,38.621  "/><path d="M81.123,55.734l-7.489-10.888l3.591,7.507l-3.932-1.708l0.608,4.16l-4.561-1.497l-6.762,6.199l-2.393,8.084l-2.136,3.272   l-2.243,0.946h-2.98l3.824-4.917l0.397-3.574l-1.571-5.567l-1.559-6.665l2.152-6.506l-3.642,6.521l1.391,6.903l2.407,5.574   l-6.257,1.973l-6.197-1.973l2.406-5.574l1.391-6.903l-3.64-6.521l2.151,6.506l-1.559,6.665l-1.57,5.567l0.398,3.574l3.823,4.917   h-2.979l-2.244-0.946l-2.135-3.272l-2.393-8.084l-6.761-6.199l-4.562,1.497l0.608-4.16l-3.932,1.708l3.591-7.507l-7.487,10.888   l5.303-2.297l-0.598,4.216l6.457-1.932l6.059,4.816l2.644,7.72l2.402,3.553l2.533,1.038l0.4,2.745l5.893,2.867l5.951-2.867   l0.401-2.745l2.532-1.038l2.401-3.553l2.646-7.72l6.058-4.816l6.457,1.932l-0.597-4.216L81.123,55.734z M54.739,75.083L50,76.798   l-4.74-1.715L45.211,72.8l4.759-0.989l4.819,0.989L54.739,75.083z"/></g></svg>
