<svg width="467" height="169" xmlns="http://www.w3.org/2000/svg">
 <!-- Created with Method Draw - http://github.com/duopixel/Method-Draw/ -->

 <g>
  <title>background</title>
  <rect fill="#ffffff" id="canvas_background" height="171" width="469" y="-1" x="-1"/>
  <g display="none" overflow="visible" y="0" x="0" height="100%" width="100%" id="canvasGrid">
   <rect fill="url(#gridpattern)" stroke-width="0" y="0" x="0" height="100%" width="100%"/>
  </g>
 </g>
 <g>
  <title>Layer 1</title>Lycan
  <g id="svg_9">
   <g transform="matrix(1.7777778837415923,0,0,1.7777778837415923,0,0) " id="svg_4">
    <polygon id="svg_5" points="25.989495277404785,36.490498542785645 31.631508827209473,42.3774995803833 21.666497230529785,40.63449573516846 20.812508583068848,36.433499336242676 "/>
    <path id="svg_6" d="m62.744501,24.107497l0,0l-0.661,-11.79l-2.847,-9.353l-15.615,12.295l-5.963,0.547l-5.905,-0.547l-15.615,-12.295l-2.848,9.353l-0.661,11.79l0,0l-11.072,33.419l36.1,35.134l36.16,-35.134l-11.073,-33.419zm-58.295,32.849l9.403,-32.013l7.382,-8.111l16.423,2.748l16.482,-2.748l7.383,8.111l9.402,32.013l-33.267,28.702l-33.208,-28.702z"/>
    <polygon id="svg_7" points="49.38449954986572,36.490498542785645 43.74350833892822,42.3774995803833 53.70850467681885,40.63449573516846 54.56150150299072,36.433499336242676 "/>
    <path id="svg_8" d="m68.810501,53.546497l-7.489,-10.888l3.591,7.507l-3.932,-1.708l0.608,4.16l-4.561,-1.497l-6.762,6.199l-2.393,8.084l-2.136,3.272l-2.243,0.946l-2.98,0l3.824,-4.917l0.397,-3.574l-1.571,-5.567l-1.559,-6.665l2.152,-6.506l-3.642,6.521l1.391,6.903l2.407,5.574l-6.257,1.973l-6.197,-1.973l2.406,-5.574l1.391,-6.903l-3.64,-6.521l2.151,6.506l-1.559,6.665l-1.57,5.567l0.398,3.574l3.823,4.917l-2.979,0l-2.244,-0.946l-2.135,-3.272l-2.393,-8.084l-6.761,-6.199l-4.562,1.497l0.608,-4.16l-3.932,1.708l3.591,-7.507l-7.487,10.888l5.303,-2.297l-0.598,4.216l6.457,-1.932l6.059,4.816l2.644,7.72l2.402,3.553l2.533,1.038l0.4,2.745l5.893,2.867l5.951,-2.867l0.401,-2.745l2.532,-1.038l2.401,-3.553l2.646,-7.72l6.058,-4.816l6.457,1.932l-0.597,-4.216l5.304,2.297zm-26.384,19.349l-4.739,1.715l-4.74,-1.715l-0.049,-2.283l4.759,-0.989l4.819,0.989l-0.05,2.283z"/>
   </g>
  </g>
  <text font-style="normal" font-weight="normal" stroke="#000" xml:space="preserve" text-anchor="start" font-family="'Trebuchet MS', Gadget, sans-serif" font-size="129" id="svg_10" y="136" x="143" stroke-width="0" fill="#000000">Lycan</text></g>
</svg>